<?xml version="1.0" standalone="no"?><!DOCTYPE svg PUBLIC "-//W3C//DTD SVG 1.1//EN" "http://www.w3.org/Graphics/SVG/1.1/DTD/svg11.dtd"><svg t="1710432627409" class="icon" viewBox="0 0 1126 1024" version="1.1" xmlns="http://www.w3.org/2000/svg" p-id="4155" xmlns:xlink="http://www.w3.org/1999/xlink" width="219.921875" height="200"><path d="M0 844.800045a563.199859 179.199955 0 1 0 1126.399718 0 563.199859 179.199955 0 1 0-1126.399718 0Z" fill="#3E4CA6" p-id="4156"></path><path d="M876.082981 793.600058c0 70.681582-140.083165 127.999968-312.883122 127.999968S250.316737 864.28164 250.316737 793.600058a1825.765944 1825.765944 0 0 1 59.315186-287.948728c11.007997-40.55039 83.148779-1.2032 96.639975-42.36799 12.313597-37.606391-70.169582-57.420786-9.574397-210.534347C446.054288 128.000224 497.484676 0.000256 563.199859 0.000256c34.559991 0 297.625526-0.9984 394.905501 156.902361 26.700793 43.315189 51.046387 153.599962 19.148796 151.526362-27.238393-1.8176-25.113594-136.268766-129.177568-136.268766-67.788783 0-128.895968 6.860798-100.070375 94.438376 9.574398 29.055993 19.635195 78.00318 31.487992 107.391974 12.799997 31.718392-31.615992 37.913591-27.110393 52.633586 5.299199 17.279996 51.455987 32.588792 56.319986 49.715188A1947.161113 1947.161113 0 0 1 876.082981 793.600058z" fill="#4C5DBA" p-id="4157"></path><path d="M563.199859 768.000064c-136.934366 0-253.004737-36.044791-295.423926-86.169578A818.738995 818.738995 0 0 0 250.316737 793.600058c0 70.681582 140.083165 127.999968 312.883122 127.999968s312.883122-57.318386 312.883122-127.999968a815.180596 815.180596 0 0 0-17.459196-111.769572C816.230196 731.955273 700.134225 768.000064 563.199859 768.000064z" fill="#B154C1" p-id="4158"></path><path d="M614.399846 921.600026h-102.399974a51.199987 51.199987 0 0 1-51.199987-51.199988v-76.79998a51.199987 51.199987 0 0 1 51.199987-51.199988h102.399974a51.199987 51.199987 0 0 1 51.199988 51.199988v76.79998a51.199987 51.199987 0 0 1-51.199988 51.199988z m-102.399974-153.599962a25.599994 25.599994 0 0 0-25.599994 25.599994v76.79998a25.599994 25.599994 0 0 0 25.599994 25.599994h102.399974a25.599994 25.599994 0 0 0 25.599994-25.599994v-76.79998a25.599994 25.599994 0 0 0-25.599994-25.599994z" fill="#FFC107" p-id="4159"></path><path d="M563.199859 819.200051h102.399975v25.599994h-102.399975z" fill="#FFC107" p-id="4160"></path><path d="M665.599834 819.200051h-102.399975v25.599994h102.399975v-25.599994z" fill="#FFC107" p-id="4161"></path></svg>